<svg xmlns="http://www.w3.org/2000/svg" width="900" height="430" viewBox="0 0 900 430" role="img"><rect width="100%" height="100%" fill="#f8fafc"/><text x="40" y="42" font-size="24" font-weight="700" fill="#0f172a">Comparação com Benchmark</text><rect x="620" y="24" width="16" height="16" rx="4" fill="#264653"/><text x="645" y="37" font-size="14" fill="#334155">Projeto</text><rect x="730" y="24" width="16" height="16" rx="4" fill="#e9c46a"/><text x="755" y="37" font-size="14" fill="#334155">Benchmark</text><text x="40" y="115" font-size="16" fill="#334155">Conversão</text><rect x="280" y="95" width="8.8" height="24" rx="6" fill="#264653"/><text x="298.8" y="112" font-size="14" fill="#0f172a">2.33</text><rect x="280" y="129" width="15.1" height="24" rx="6" fill="#e9c46a"/><text x="305.1" y="146" font-size="14" fill="#0f172a">4.00</text><text x="40" y="210" font-size="16" fill="#334155">Clientes recorrentes</text><rect x="280" y="190" width="280.0" height="24" rx="6" fill="#264653"/><text x="570.0" y="207" font-size="14" fill="#0f172a">73.93</text><rect x="280" y="224" width="246.2" height="24" rx="6" fill="#e9c46a"/><text x="536.2" y="241" font-size="14" fill="#0f172a">65.00</text><text x="40" y="305" font-size="16" fill="#334155">Ticket médio</text><rect x="280" y="285" width="74.8" height="24" rx="6" fill="#264653"/><text x="364.8" y="302" font-size="14" fill="#0f172a">19.74</text><rect x="280" y="319" width="227.2" height="24" rx="6" fill="#e9c46a"/><text x="517.2" y="336" font-size="14" fill="#0f172a">60.00</text></svg>